<svg xmlns="http://www.w3.org/2000/svg" viewBox="0 0 64 64">
  <!-- Envelope back -->
  <path fill="#e0e0e0" d="M2 16v32h60V16z"/>
  <!-- Envelope bottom flap -->
  <path fill="#eeeeee" d="M2 48h60L32 26z"/>
  <!-- Envelope side flaps -->
  <path fill="#e0e0e0" d="M2 48l22-18-22-14zM62 48l-22-18 22-14z"/>
  <!-- Envelope top flap -->
  <path fill="#f5f5f5" d="M2 16l30 22 30-22z"/>
  <!-- Heart Seal -->
  <path fill="#ff5252" d="M32 40.4c-6.8-6.1-11.4-10.4-11.4-15.3 0-4 3.2-7.2 7.2-7.2 2.3 0 4.6 1.1 6 3.1 1.4-2 3.7-3.1 6-3.1 4 0 7.2 3.2 7.2 7.2 0 4.9-4.6 9.2-11.4 15.3l-3.6 3.3-3.6-3.3z"/>
</svg>